<svg width="1134" height="1134" viewBox="0 0 1134 1134" fill="none" xmlns="http://www.w3.org/2000/svg">
<path d="M696.363 29.1943C509.767 29.7692 299.399 30.3441 229.085 30.4878L101.203 30.6315L102.062 527.451C102.635 800.796 103.351 1025.28 103.638 1026.28C104.067 1027.86 187.556 1028.15 600.272 1027.72C873.078 1027.58 1096.62 1027 1097.05 1026.57C1097.48 1026.14 1098.2 845.347 1098.63 624.889C1099.06 404.288 1099.91 179.807 1100.34 125.914L1101.2 27.9009L1068.55 28.1883C1050.51 28.1883 883.102 28.7632 696.363 29.1943ZM1061.96 530.326L1061.54 992.798H601.132H140.728L140.298 530.326L140.012 67.9972H601.132H1062.25L1061.96 530.326Z" fill="black"/>
<path d="M266.036 138.419V194.468H210.186H154.336V250.516V306.565H210.186H266.036V362.613V418.662H210.186H154.336V474.71V530.759H210.186H266.036V586.807V642.856H210.186H154.336L154.622 698.617L155.052 754.234L210.615 754.665L266.036 754.953V811.001V867.05H210.186H154.336V922.667V978.428L209.756 978.141L265.32 977.71L265.749 922.38L266.036 867.05L321.599 866.762L377.02 866.331V811.001V755.671L321.599 755.24L266.036 754.953V698.904V642.856H321.886H377.736V698.186V753.516L381.029 754.234C382.748 754.665 407.665 754.809 436.45 754.665L488.719 754.234L489.149 698.473L489.435 642.856H544.569H599.703V698.904V754.953H544.569H489.435L489.149 810.714L488.719 866.331L433.299 866.762L377.736 867.05V922.811V978.428H433.586H489.435V922.667V867.05L544.999 867.337L600.419 867.768L600.849 922.667L601.135 977.71L654.551 977.997C683.765 978.285 708.682 978.141 709.685 977.853C710.973 977.566 711.403 965.207 711.403 922.236V867.05H655.553H599.846L600.133 810.57L600.419 754.234L653.835 753.803C689.493 753.659 708.109 753.947 710.114 754.953C712.835 756.534 712.978 757.971 712.835 811.432L712.692 866.331L767.826 866.762L823.103 867.05V922.811V978.428H878.953H934.803V922.667V867.05H990.653H1046.5V811.001V754.953H990.653H934.803V698.904V642.856L990.796 642.568L1046.93 642.137L1046.65 588.963C1046.5 559.645 1046.5 534.639 1046.5 533.202C1046.5 530.902 1042.92 530.759 990.653 530.759H934.803V474.71V418.662H990.653C1034.33 418.662 1046.5 418.231 1046.5 416.793C1046.65 415.931 1046.65 390.781 1046.65 361.176L1046.5 307.283L990.653 306.852L934.803 306.565L935.089 250.804L935.519 195.186L991.369 194.468C1022.16 194.037 1047.08 193.318 1046.93 192.599C1046.65 192.025 1046.5 167.018 1046.5 136.982V82.3706H990.653H934.803V138.419V194.468H878.953H823.103V138.419V82.3706H767.253C736.464 82.3706 711.546 82.8018 711.546 83.3766C711.69 84.0952 711.69 109.245 711.546 139.425L711.403 194.468H655.553H599.703V138.419V82.3706H544.569H489.435V138.419V194.468H433.586H377.736V138.419V82.3706H321.886H266.036V138.419ZM377.736 250.516V306.565H433.586H489.435V250.516V194.468L544.999 194.755L600.419 195.186V250.516V305.846L544.999 306.277L489.435 306.565V362.613V418.662H544.569H599.703V362.613V306.565H655.553H711.403V250.516V194.468H767.253H823.103V250.516V306.565H878.953H934.803V362.613V418.662H878.953H823.103V474.71V530.759H878.953H934.803V586.807V642.856L879.382 642.568L823.819 642.137L823.389 586.376L823.103 530.759H767.253H711.403V474.71V418.662H767.253H823.103V362.613V306.565H767.253H711.403V360.745C711.403 390.637 711.403 415.931 711.403 416.793C711.403 418.231 699.231 418.662 655.553 418.662H599.703V474.71V530.759H655.553C699.231 530.759 711.403 531.19 711.403 532.483C711.403 533.489 711.546 558.639 711.833 588.244L712.119 642.137L767.683 642.568L823.103 642.856V698.186C823.103 749.923 823.246 753.516 825.681 753.516C826.969 753.659 851.028 753.516 879.096 753.516C907.021 753.516 931.079 753.803 932.368 754.378C934.66 755.24 934.803 760.27 934.803 811.145V867.05H878.953H823.103V811.001V754.953H767.253H711.403V698.904V642.856H655.553H599.703V586.807V530.759H544.569H489.435V586.807V642.856H433.586H377.736V586.807V530.759H321.886H266.036V474.71V418.662H321.886H377.736V362.613V306.565H321.886H266.036V250.516V194.468H321.886H377.736V250.516Z" fill="black"/>
<path d="M377.734 474.709V530.757H433.584H489.434V474.709V418.66H433.584H377.734V474.709Z" fill="black"/>
</svg>
