<svg width="60" height="60" viewBox="0 0 60 60" fill="none" xmlns="http://www.w3.org/2000/svg">
<path d="M35 20L25 30M25 20L35 30M18.75 38.75H22.5M41.25 38.75H30M52.5 17.5V15.925C52.5 12.9425 52.5 11.45 52.105 10.25C51.7463 9.13559 51.1354 8.11892 50.3198 7.27904C49.5042 6.43917 48.5059 5.79872 47.4025 5.4075C46.2325 5 44.785 5 41.8875 5H18.1125C15.215 5 13.7675 5 12.5975 5.4075C11.4944 5.79864 10.4964 6.43876 9.68084 7.27816C8.86529 8.11755 8.25419 9.13364 7.895 10.2475C7.5 11.4525 7.5 12.9425 7.5 15.925V37.5M52.5 27.5V50.935C52.5 53.08 50.0375 54.22 48.48 52.795C48.043 52.3912 47.4699 52.167 46.875 52.167C46.2801 52.167 45.707 52.3912 45.27 52.795L44.0625 53.9C43.297 54.6079 42.2927 55.0011 41.25 55.0011C40.2073 55.0011 39.203 54.6079 38.4375 53.9C37.672 53.1921 36.6677 52.7989 35.625 52.7989C34.5823 52.7989 33.578 53.1921 32.8125 53.9C32.047 54.6079 31.0427 55.0011 30 55.0011C28.9573 55.0011 27.953 54.6079 27.1875 53.9C26.422 53.1921 25.4177 52.7989 24.375 52.7989C23.3323 52.7989 22.328 53.1921 21.5625 53.9C20.797 54.6079 19.7927 55.0011 18.75 55.0011C17.7073 55.0011 16.703 54.6079 15.9375 53.9L14.73 52.795C14.293 52.3912 13.7199 52.167 13.125 52.167C12.5301 52.167 11.957 52.3912 11.52 52.795C9.9625 54.22 7.5 53.08 7.5 50.935V47.5" stroke="black" stroke-width="1.5" stroke-linecap="round"/>
</svg>
