<svg width="32" height="34" viewBox="0 0 32 34" fill="none" xmlns="http://www.w3.org/2000/svg">
<path d="M15.9995 21.6827C18.6355 21.6827 20.7724 19.5458 20.7724 16.9098C20.7724 14.2738 18.6355 12.1368 15.9995 12.1368C13.3635 12.1368 11.2266 14.2738 11.2266 16.9098C11.2266 19.5458 13.3635 21.6827 15.9995 21.6827Z" stroke="white" stroke-width="1.5"/>
<path d="M18.8081 1.24183C18.2242 1 17.4828 1 16 1C14.5172 1 13.7758 1 13.1919 1.24183C12.8056 1.40174 12.4546 1.63622 12.1589 1.93187C11.8633 2.22752 11.6288 2.57853 11.4689 2.96485C11.3225 3.31964 11.2637 3.73489 11.2414 4.33786C11.2315 4.77377 11.1109 5.20001 10.8911 5.57655C10.6712 5.95309 10.3593 6.26757 9.98453 6.49045C9.60412 6.70371 9.17574 6.81676 8.73964 6.81899C8.30354 6.82122 7.87403 6.71254 7.49147 6.50318C6.9569 6.21999 6.5703 6.06407 6.18687 6.01316C5.35053 5.90318 4.50473 6.12979 3.83541 6.64319C3.33584 7.02979 2.96356 7.67096 2.22216 8.95487C1.48077 10.2388 1.10848 10.88 1.02734 11.5084C0.972667 11.9228 1.00017 12.3438 1.10827 12.7476C1.21637 13.1513 1.40296 13.5298 1.65737 13.8614C1.89283 14.1669 2.22216 14.4231 2.73287 14.7444C3.4854 15.2169 3.96905 16.022 3.96905 16.9097C3.96905 17.7975 3.4854 18.6025 2.73287 19.0735C2.22216 19.3964 1.89124 19.6526 1.65737 19.9581C1.40296 20.2897 1.21637 20.6682 1.10827 21.0719C1.00017 21.4756 0.972667 21.8967 1.02734 22.3111C1.11007 22.9379 1.48077 23.5807 2.22057 24.8646C2.96356 26.1485 3.33425 26.7897 3.83541 27.1763C4.16703 27.4307 4.54552 27.6173 4.94926 27.7254C5.353 27.8335 5.77409 27.861 6.18846 27.8063C6.5703 27.7554 6.9569 27.5995 7.49147 27.3163C7.87403 27.1069 8.30354 26.9983 8.73964 27.0005C9.17574 27.0027 9.60412 27.1158 9.98453 27.329C10.753 27.7745 11.2096 28.5939 11.2414 29.4816C11.2637 30.0862 11.3209 30.4998 11.4689 30.8546C11.6288 31.241 11.8633 31.592 12.1589 31.8876C12.4546 32.1833 12.8056 32.4177 13.1919 32.5777C13.7758 32.8195 14.5172 32.8195 16 32.8195C17.4828 32.8195 18.2242 32.8195 18.8081 32.5777C19.1944 32.4177 19.5454 32.1833 19.8411 31.8876C20.1367 31.592 20.3712 31.241 20.5311 30.8546C20.6775 30.4998 20.7363 30.0862 20.7586 29.4816C20.7904 28.5939 21.247 27.7729 22.0155 27.329C22.3959 27.1158 22.8243 27.0027 23.2604 27.0005C23.6965 26.9983 24.126 27.1069 24.5085 27.3163C25.0431 27.5995 25.4297 27.7554 25.8115 27.8063C26.2259 27.861 26.647 27.8335 27.0507 27.7254C27.4545 27.6173 27.833 27.4307 28.1646 27.1763C28.6657 26.7913 29.0364 26.1485 29.7778 24.8646C30.5192 23.5807 30.8915 22.9395 30.9727 22.3111C31.0273 21.8967 30.9998 21.4756 30.8917 21.0719C30.7836 20.6682 30.597 20.2897 30.3426 19.9581C30.1072 19.6526 29.7778 19.3964 29.2671 19.0751C28.8944 18.8485 28.5854 18.5309 28.3692 18.1522C28.1529 17.7734 28.0366 17.3459 28.0309 16.9097C28.0309 16.022 28.5146 15.2169 29.2671 14.746C29.7778 14.4231 30.1088 14.1669 30.3426 13.8614C30.597 13.5298 30.7836 13.1513 30.8917 12.7476C30.9998 12.3438 31.0273 11.9228 30.9727 11.5084C30.8899 10.8815 30.5192 10.2388 29.7794 8.95487C29.0364 7.67096 28.6657 7.02979 28.1646 6.64319C27.833 6.38878 27.4545 6.20219 27.0507 6.09409C26.647 5.98599 26.2259 5.95849 25.8115 6.01316C25.4297 6.06407 25.0431 6.21999 24.5069 6.50318C24.1246 6.71226 23.6954 6.82078 23.2596 6.81855C22.8238 6.81632 22.3957 6.70343 22.0155 6.49045C21.6407 6.26757 21.3288 5.95309 21.1089 5.57655C20.8891 5.20001 20.7685 4.77377 20.7586 4.33786C20.7363 3.73329 20.6791 3.31964 20.5311 2.96485C20.3712 2.57853 20.1367 2.22752 19.8411 1.93187C19.5454 1.63622 19.1944 1.40174 18.8081 1.24183Z" stroke="white" stroke-width="1.5"/>
</svg>
